# 3ds Max Wavefront OBJ Exporter v0.97b - (c)2007 guruware
# File Created: 23.01.2015 21:07:55

mtllib rhombic dodecahedron test cube.mtl

#
# object Box004
#

v  48.4741 -10.5281 160.9194
v  48.4741 -10.5281 112.9884
v  72.4396 -35.5281 136.9539
v  96.4050 -10.5281 112.9884
v  96.4050 -10.5281 160.9194
v  48.4741 39.4719 160.9194
v  96.4050 39.4719 160.9194
v  72.4396 64.4719 136.9539
v  96.4050 39.4719 112.9884
v  48.4741 39.4719 112.9884
v  72.4396 14.4719 184.8849
v  120.3705 14.4719 136.9539
v  72.4396 14.4719 89.0230
v  24.5086 14.4719 136.9539
# 14 vertices

vn -0.7071 -0.7071 -0.0000
vn 0.0000 -0.7071 -0.7071
vn 0.7071 -0.7071 -0.0000
vn 0.0000 -0.7071 0.7071
vn 0.0000 0.7071 0.7071
vn 0.7071 0.7071 -0.0000
vn 0.0000 0.7071 -0.7071
vn -0.7071 0.7071 -0.0000
vn 0.7071 0.0000 0.7071
vn -0.7071 0.0000 0.7071
vn 0.7071 0.0000 -0.7071
vn -0.7071 0.0000 -0.7071
# 12 vertex normals

vt 1.0000 0.0000 0.0000
vt 1.0000 1.0000 0.0000
vt 0.5000 0.5000 0.0000
vt 0.0000 1.0000 0.0000
vt 0.0000 0.0000 0.0000
# 5 texture coords

g Box004
usemtl wire_113135006
s off
f 1/1/1 2/2/1 3/3/1 
f 2/2/2 4/4/2 3/3/2 
f 4/4/3 5/5/3 3/3/3 
f 5/5/4 1/1/4 3/3/4 
f 6/5/5 7/1/5 8/3/5 
f 7/1/6 9/2/6 8/3/6 
f 9/2/7 10/4/7 8/3/7 
f 10/4/8 6/5/8 8/3/8 
f 1/5/4 5/1/4 11/3/4 
f 5/1/9 7/2/9 11/3/9 
f 7/2/5 6/4/5 11/3/5 
f 6/4/10 1/5/10 11/3/10 
f 5/5/3 4/1/3 12/3/3 
f 4/1/11 9/2/11 12/3/11 
f 9/2/6 7/4/6 12/3/6 
f 7/4/9 5/5/9 12/3/9 
f 4/5/2 2/1/2 13/3/2 
f 2/1/12 10/2/12 13/3/12 
f 10/2/7 9/4/7 13/3/7 
f 9/4/11 4/5/11 13/3/11 
f 2/5/1 1/1/1 14/3/1 
f 1/1/10 6/2/10 14/3/10 
f 6/2/8 10/4/8 14/3/8 
f 10/4/12 2/5/12 14/3/12 
# 0 polygons - 24 triangles

